<?xml version="1.0" encoding="utf-8"?>
<svg version="1.1" xmlns="http://www.w3.org/2000/svg" viewBox="0 0 300 180">
<path id="Nancy" fill="#333333" d="M255.7,54.4c16.3,9,22.5,23.8,22.4,41.5c-0.1,18.1-9,31.1-25,39.4c15.9-3.3,25.4-13.3,29.7-28.8
	c0.5,0.1,1,0.2,1.6,0.3c0,5.9,0.6,11.9-0.2,17.7c-0.7,5.9-2.5,11.7-4.3,17.4c-0.4,1.4-2.5,3.1-4,3.2c-9,0.5-16.6,4.2-24.1,8.9
	c-3.9,2.5-7.9,5-12.2,6.7c-12.2,4.7-19.6,0-20.8-12.9c-0.3-2.7-0.8-4.6-3.7-5.6c-8.3-3.1-8.3-3.3-4.5-11.1c-0.9-0.1-1.6-0.1-2.4-0.2
	c-7.9-0.4-8.7-1.4-6.7-9c1.7-6.5,1.1-7.8-4.8-11.2c-1.2-0.7-2.4-1.3-3.4-2c-4.7-3.2-5.2-5-2.1-9.7c11.1-16.6,12.1-34.8,9.1-53.8
	c-1.5-9.2-3-18.4-4.4-27.6c-0.2-1.4-0.2-2.8-0.3-5c6.6,8.8,12.3,17.1,18.7,24.8c6.4,7.8,13.5,15,20.8,22
	c-6.8-11.2-13.5-22.4-20.3-33.7c0.5-0.4,1-0.8,1.5-1.1c0.8,0.6,1.7,1.1,2.3,1.9c11.4,13.7,23,27.2,33.9,41.2c3.8,4.9,6.2,11,8.3,17
	c4.3,12.4,2.2,23.3-9.2,31.5c7.9-2.2,12.8-7.5,15-15c4.9-16,1.5-30.5-8.4-43.8C257.5,56.4,256.6,55.4,255.7,54.4z"/>
<path id="S" fill="#8CC84C" d="M98.2,59.3c6.1,0,11.4,0.5,16.6,2.6c7.3,2.9,10.8,8.6,11.6,16.1c0.2,1.4-0.5,2.2-1.9,2.2
	c-2.2,0.1-4.5,0-6.7,0c-0.9,0-1.6-0.4-1.8-1.3c-1.3-7-6.3-9.4-12.7-9.8c-4.2-0.3-8.5-0.4-12.6,0.6c-2.9,0.7-5.6,1.9-6.4,5.3
	c-0.7,3.1,0.2,5,3.2,6c3.9,1.4,8,1.9,12.1,2.4c5.6,0.8,11.2,1.4,16.6,2.9c3.5,1,6.9,2.3,9.4,5.2c4.6,5.3,4.1,15.1-0.8,20.6
	c-3.7,4-8.5,5.9-13.7,6.9c-8.4,1.5-16.8,1.4-25.1-0.9c-5.5-1.5-10.1-4.3-12.9-9.6c-1.4-2.7-1.9-5.6-2-8.5c0-1.2,0.6-1.9,1.9-1.9
	c2.2,0,4.5,0,6.8,0c1.1,0,1.8,0.4,1.9,1.5c0.9,7,5.5,9.6,11.8,10.2c6,0.6,12,0.8,17.9-0.7c4.3-1.1,6.3-3.7,6.3-7.6
	c0-2-0.8-3.4-2.5-4.3c-2.9-1.5-6.1-2-9.2-2.6c-6.5-1.1-13.2-1.2-19.7-2.9c-2.1-0.6-4.1-1.3-6-2.3c-5.5-2.9-7.6-7.8-7.1-13.6
	C73.6,68,78.3,63,86.8,60.7C90.7,59.6,94.8,59.2,98.2,59.3z"/>
<path id="J" fill="#8CC84C" d="M15.5,88.7c0-10.3,0-20.7,0-31c0-4.8,2.1-8.4,6.3-10.8C39.9,36.7,58,26.5,76,16.2
	c4.9-2.8,9.6-2.9,14.6,0c18.1,10.3,36.3,20.5,54.4,30.8c4.1,2.3,6.2,5.9,6.2,10.7c0,20.7,0,41.4,0,62.1c0,5-2.1,8.6-6.4,11
	c-14.5,8.2-28.9,16.3-43.4,24.5c-3.8,2.2-7.7,4.3-11.5,6.5c-4.4,2.6-8.8,2.6-13.2,0c-5.8-3.4-11.7-6.8-17.5-10.1
	c-0.4-0.2-0.7-0.4-1.1-0.7c-0.4-0.3-1-0.6-1-1.2c0.1-0.6,0.7-0.7,1.2-0.9c2.6-0.9,5.1-1.8,7.5-3.3c1.1-0.7,1.9-0.6,3,0
	c4.2,2.5,8.5,4.9,12.8,7.5c1.3,0.8,2.3,0.7,3.6,0c18-10.2,36.1-20.4,54.1-30.5c1.4-0.8,2-1.7,1.9-3.3c0-20.3,0-40.5,0-60.8
	c0-1.6-0.5-2.5-1.9-3.3c-18-10.1-35.9-20.2-53.9-30.4c-1.5-0.8-2.7-0.8-4.2,0c-18,10.2-36,20.3-54,30.5c-1.3,0.7-1.8,1.6-1.8,3.1
	c0,20.3,0,40.6,0,60.9c0,1.5,0.5,2.5,1.9,3.2c4.7,2.6,9.3,5.3,14,7.8c2.7,1.5,5.5,2.3,8.6,1.5c2.8-0.8,4.8-3,5.1-5.9
	c0.1-0.9,0.2-1.8,0.2-2.7c0-19.8,0-39.5,0-59.3c0-2.6,0.2-2.8,2.7-2.8c1.9,0,3.8,0,5.6,0c1.3,0,2,0.6,2,2c0,0.2,0,0.3,0,0.5
	c0,20.6,0,41.3,0,61.9c0,1.9-0.2,3.8-0.8,5.7c-1.8,6.6-6.9,10.5-13.8,11c-5.6,0.4-10.7-1-15.5-3.7c-4.6-2.6-9.3-5.2-13.9-7.8
	c-4.1-2.3-6.2-5.9-6.2-10.7C15.5,109.5,15.5,99.1,15.5,88.7z"/>
</svg>
